<?xml version="1.0" encoding="UTF-8" standalone="no"?>
<svg
   width="16"
   viewBox="0 0 16 16"
   height="16"
   id="svg2"
   version="1.1"
   inkscape:version="1.1 (c4e8f9ed74, 2021-05-24)"
   sodipodi:docname="audio-volume-medium-symbolic.svg"
   xmlns:inkscape="http://www.inkscape.org/namespaces/inkscape"
   xmlns:sodipodi="http://sodipodi.sourceforge.net/DTD/sodipodi-0.dtd"
   xmlns="http://www.w3.org/2000/svg"
   xmlns:svg="http://www.w3.org/2000/svg"
   xmlns:rdf="http://www.w3.org/1999/02/22-rdf-syntax-ns#"
   xmlns:cc="http://creativecommons.org/ns#"
   xmlns:dc="http://purl.org/dc/elements/1.1/">
  <metadata
     id="metadata30">
    <rdf:RDF>
      <cc:Work
         rdf:about="">
        <dc:format>image/svg+xml</dc:format>
        <dc:type
           rdf:resource="http://purl.org/dc/dcmitype/StillImage" />
        <dc:title />
      </cc:Work>
    </rdf:RDF>
  </metadata>
  <sodipodi:namedview
     pagecolor="#ffffff"
     bordercolor="#666666"
     borderopacity="1"
     objecttolerance="10"
     gridtolerance="10"
     guidetolerance="10"
     inkscape:pageopacity="0"
     inkscape:pageshadow="2"
     inkscape:window-width="1916"
     inkscape:window-height="1054"
     id="namedview28"
     showgrid="true"
     inkscape:zoom="38.125"
     inkscape:cx="3.042623"
     inkscape:cy="7.9344262"
     inkscape:window-x="0"
     inkscape:window-y="22"
     inkscape:window-maximized="1"
     inkscape:current-layer="svg2"
     showguides="true"
     inkscape:snap-intersection-paths="false"
     inkscape:object-paths="false"
     inkscape:pagecheckerboard="0">
    <inkscape:grid
       type="xygrid"
       id="grid4158" />
  </sodipodi:namedview>
  <defs
     id="defs4" />
  <path
     d="M 6,2 2,6 2,10 6,14 6,9 7,8 6,7 Z"
     id="path18"
     inkscape:connector-curvature="0"
     style="fill:#bebebe"
     sodipodi:nodetypes="cccccccc" />
  <path
     d="M 1.300003,5 C 0.216589,5 0,6.163269 0,7.4 L 0,8.6 C 0,9.836747 0.24312,11 1.300003,11 L 3,11 3,5 Z"
     id="path20"
     inkscape:connector-curvature="0"
     style="fill:#bebebe"
     sodipodi:nodetypes="ssssccs" />
  <path
     style="opacity:0.3;fill:#bebebe;fill-opacity:1;fill-rule:evenodd;stroke:none;stroke-width:1px;stroke-linecap:butt;stroke-linejoin:miter;stroke-opacity:1"
     d="M 13.140638,1 11.726417,2.413582 C 12.808349,3.4955144 13.990412,5.4467621 14,8 c 0,2.551493 -1.192916,4.505751 -2.273583,5.586418 L 13.140638,15 C 14.595711,13.544927 16.019176,11 16,8 16.035061,5 14.595117,2.4544787 13.140638,1 Z"
     id="path4508"
     inkscape:connector-curvature="0"
     sodipodi:nodetypes="ccccccc" />
  <path
     style="opacity:1;fill:#bebebe;fill-opacity:1;fill-rule:evenodd;stroke:none;stroke-width:1px;stroke-linecap:butt;stroke-linejoin:miter;stroke-opacity:1"
     d="M 11,3.1156678 9.5897193,4.5261118 C 10.372347,5.3087395 11,6.5690611 11,8 11,9.4309388 10.372767,10.690952 9.5897193,11.474 L 11,12.884 C 12.275645,11.608355 13,9.854095 13,8 13,6.1543677 12.273068,4.3887355 11,3.1156678 Z"
     id="path4529"
     inkscape:connector-curvature="0"
     sodipodi:nodetypes="ccccccc" />
  <path
     style="opacity:1;fill:#bebebe;fill-opacity:1;fill-rule:evenodd;stroke:none;stroke-width:1px;stroke-linecap:butt;stroke-linejoin:miter;stroke-opacity:1"
     d="M 8.629,5 7.2094668,6.4096296 C 8,7.05621 8,7.805653 8,8 8,8.1932576 7.982199,8.9408674 7.209,9.59 L 8.6289063,11 C 9.8466375,9.952694 10,8.5984701 10,8 10,7.400497 9.854476,6.062891 8.629,5 Z"
     id="path4569"
     inkscape:connector-curvature="0"
     sodipodi:nodetypes="ccscccc" />
  <path
     style="fill:#ebcb8b;fill-opacity:1;stroke-width:0.0262295"
     d="m 4.4864803,12.473368 -1.4938476,-1.494022 -0.9985831,-0.0077 -0.998583,-0.0077 -0.17261857,-0.08502 C 0.50543549,10.722587 0.28461765,10.404204 0.15783524,9.9200797 0.03568967,9.4536609 0.02619593,9.311729 0.0267706,7.9606557 0.02723761,6.862678 0.03365501,6.6526167 0.07364748,6.4262295 0.18712571,5.7838581 0.37857388,5.3962733 0.68196721,5.1946922 0.92821479,5.0310801 0.99268748,5.0229508 2.0440201,5.0229508 H 2.9899942 L 4.4917186,3.521397 5.9934426,2.0198432 V 4.5118198 7.0037965 L 6.4918098,7.5016459 6.9901768,7.9994951 6.4919439,8.4982201 5.993711,8.9969448 5.987021,11.482167 5.980331,13.96739 Z"
     id="path9603" />
  <path
     style="fill:#ebcb8b;fill-opacity:0.9957785;stroke-width:0.0262295"
     d="M 7.9339842,10.281525 7.2428299,9.5900013 7.4261162,9.3970487 C 7.7204968,9.0871423 7.8897994,8.7697112 7.9713931,8.3746909 8.1034639,7.7352952 7.9161054,7.1150311 7.4405402,6.6172625 L 7.2425515,6.4100301 7.9407014,5.7118802 8.6388513,5.0137303 8.8586669,5.2395653 C 9.4717759,5.8694638 9.845062,6.6474582 9.9551614,7.5248545 9.9982754,7.8684344 9.9735546,8.4710988 9.9026421,8.8052197 9.799105,9.2930599 9.6008298,9.7685805 9.3305517,10.177256 9.155202,10.442395 8.8541522,10.798371 8.7164465,10.903405 l -0.091308,0.06964 z"
     id="path9790" />
  <path
     style="fill:#ebcb8b;fill-opacity:1;stroke-width:0.0262295"
     d="M 10.295946,12.171357 9.6030091,11.478049 9.7334809,11.339025 C 10.365886,10.665164 10.822559,9.6742313 10.962243,8.6727384 11.160923,7.2482599 10.676107,5.665393 9.7334809,4.6609754 L 9.6030091,4.5219509 10.295946,3.8286434 l 0.692938,-0.6933076 0.101723,0.097906 c 0.142647,0.1372939 0.506036,0.5827475 0.678995,0.8323321 0.559647,0.807588 0.960387,1.8080467 1.122674,2.8027861 0.289195,1.7726266 -0.120019,3.619203 -1.122674,5.066066 -0.172959,0.249585 -0.536348,0.695038 -0.678995,0.832332 l -0.101723,0.09791 z"
     id="path10088" />
  <path
     style="fill:#ebcb8b;fill-opacity:0.30000001;stroke-width:0.0262295"
     d="m 12.440787,14.290124 -0.700196,-0.703239 0.158272,-0.167119 c 0.701315,-0.740521 1.353465,-1.84624 1.695963,-2.875504 0.906854,-2.7252535 0.283376,-5.7555921 -1.621103,-7.8791749 l -0.230894,-0.2574579 0.701524,-0.7011637 0.701525,-0.7011637 0.225077,0.2492073 c 1.349702,1.4944057 2.242908,3.3773619 2.521706,5.3159827 0.12726,0.8848978 0.127107,1.9246675 -4.14e-4,2.8196721 -0.285862,2.0063141 -1.207742,3.9358071 -2.598028,5.4376641 l -0.153235,0.165534 z"
     id="path10312" />
</svg>
