<?xml version="1.0" encoding="UTF-8" standalone="no"?>
<!-- Created with Inkscape (http://www.inkscape.org/) -->

<svg
   version="1.1"
   id="svg7978"
   width="26.603872"
   height="48"
   viewBox="0 0 26.603872 48"
   sodipodi:docname="cal.svg"
   inkscape:version="1.1 (c4e8f9ed74, 2021-05-24)"
   xmlns:inkscape="http://www.inkscape.org/namespaces/inkscape"
   xmlns:sodipodi="http://sodipodi.sourceforge.net/DTD/sodipodi-0.dtd"
   xmlns="http://www.w3.org/2000/svg"
   xmlns:svg="http://www.w3.org/2000/svg">
  <defs
     id="defs7982" />
  <sodipodi:namedview
     id="namedview7980"
     pagecolor="#ffffff"
     bordercolor="#666666"
     borderopacity="1.0"
     inkscape:pageshadow="2"
     inkscape:pageopacity="0.0"
     inkscape:pagecheckerboard="0"
     showgrid="false"
     inkscape:zoom="8.7783731"
     inkscape:cx="-3.7592387"
     inkscape:cy="17.770947"
     inkscape:window-width="1916"
     inkscape:window-height="1054"
     inkscape:window-x="0"
     inkscape:window-y="22"
     inkscape:window-maximized="1"
     inkscape:current-layer="g7984"
     fit-margin-top="0"
     fit-margin-left="0"
     fit-margin-right="0"
     fit-margin-bottom="0"
     inkscape:snap-bbox="true"
     inkscape:snap-bbox-midpoints="true" />
  <g
     inkscape:groupmode="layer"
     inkscape:label="Image"
     id="g7984"
     transform="translate(-14.68114,-9.9281451)">
    <path
       style="fill:#b48ead;fill-opacity:1;stroke-width:0.0468555"
       d="m 17.897139,48.512699 c -1.360338,-0.298125 -2.515891,-1.322615 -2.954215,-2.619148 -0.21677,-0.641193 -0.212013,-0.40441 -0.212013,-10.55111 0,-10.151032 -0.0048,-9.913435 0.212721,-10.551111 0.365499,-1.071528 1.185516,-1.952009 2.2229,-2.3868 0.688493,-0.288564 1.200971,-0.349496 2.943858,-0.350022 l 1.274034,-3.83e-4 0.01815,-0.83052 c 0.01641,-0.751188 0.02849,-0.851618 0.126381,-1.051399 0.211872,-0.432385 0.689132,-0.738312 1.151799,-0.738312 0.300238,0 0.501199,0.06437 0.769944,0.246615 0.438127,0.297114 0.570411,0.704691 0.570411,1.757484 v 0.616132 h 4.01173 4.01173 v -0.62307 c 0,-1.026664 0.116668,-1.400086 0.538021,-1.722053 0.518337,-0.396078 1.16949,-0.367066 1.658968,0.07391 0.348328,0.313814 0.400845,0.493298 0.421545,1.440689 l 0.01815,0.83052 1.274034,3.83e-4 c 1.742887,5.27e-4 2.255365,0.06146 2.943858,0.350022 1.037383,0.434791 1.857401,1.315272 2.222899,2.3868 0.217512,0.637676 0.212722,0.400079 0.212722,10.551112 0,10.146699 0.0048,9.909917 -0.212013,10.55111 -0.443239,1.311071 -1.606838,2.332504 -2.986945,2.622008 -0.462917,0.09711 -19.794987,0.09438 -20.238664,-0.0029 z m 19.866524,-2.552924 c 0.374433,-0.11187 0.777432,-0.500851 0.906046,-0.87453 0.04724,-0.137251 0.06274,-1.479079 0.07294,-6.315448 l 0.01296,-6.141167 H 28.032836 17.310066 l 0.01296,6.141167 c 0.0102,4.836369 0.0257,6.178197 0.07294,6.315448 0.123279,0.358178 0.506883,0.737836 0.877342,0.868316 0.200797,0.07072 19.254112,0.07679 19.490358,0.0062 z m 0.99058,-17.966015 c 0,-1.403599 -0.01733,-2.131498 -0.05431,-2.281005 -0.08985,-0.363248 -0.347521,-0.687243 -0.719884,-0.905164 -0.185197,-0.108385 -0.208282,-0.110032 -1.7426,-0.124371 l -1.554917,-0.01453 -0.01705,0.858765 -0.01705,0.858764 -0.164103,0.270281 c -0.27306,0.449732 -0.60443,0.638389 -1.119981,0.637632 -0.500165,-7.36e-4 -0.924438,-0.255699 -1.150311,-0.691269 -0.112879,-0.217675 -0.169472,-0.653606 -0.169472,-1.305436 v -0.62307 h -4.011729 -4.01173 v 0.62307 c 0,0.65183 -0.05659,1.087761 -0.169472,1.305436 -0.225873,0.43557 -0.650146,0.690534 -1.150311,0.691269 -0.515551,7.56e-4 -0.846921,-0.1879 -1.119981,-0.637632 l -0.164104,-0.270281 -0.01705,-0.858764 -0.01705,-0.858765 -1.554916,0.01453 c -1.534319,0.01434 -1.557403,0.01598 -1.7426,0.124371 -0.372363,0.217921 -0.630038,0.541916 -0.719884,0.905164 -0.03698,0.149507 -0.05431,0.877406 -0.05431,2.281005 v 2.061429 h 10.721408 10.721408 z"
       id="path8118" />
  </g>
</svg>
