<?xml version="1.0" encoding="UTF-8" standalone="no"?>
<svg
   width="16"
   height="16"
   viewBox="0 0 24 24"
   fill="none"
   stroke="#ECEFF4"
   stroke-width="2"
   stroke-linecap="round"
   stroke-linejoin="round"
   class="feather feather-lock"
   version="1.1"
   id="svg2535"
   sodipodi:docname="lock.svg"
   inkscape:version="1.1 (c4e8f9ed74, 2021-05-24)"
   xmlns:inkscape="http://www.inkscape.org/namespaces/inkscape"
   xmlns:sodipodi="http://sodipodi.sourceforge.net/DTD/sodipodi-0.dtd"
   xmlns="http://www.w3.org/2000/svg"
   xmlns:svg="http://www.w3.org/2000/svg">
  <defs
     id="defs2539" />
  <sodipodi:namedview
     id="namedview2537"
     pagecolor="#ffffff"
     bordercolor="#666666"
     borderopacity="1.0"
     inkscape:pageshadow="2"
     inkscape:pageopacity="0.0"
     inkscape:pagecheckerboard="0"
     showgrid="false"
     inkscape:zoom="42.625"
     inkscape:cx="3.542522"
     inkscape:cy="7.941349"
     inkscape:window-width="1916"
     inkscape:window-height="1054"
     inkscape:window-x="0"
     inkscape:window-y="22"
     inkscape:window-maximized="1"
     inkscape:current-layer="svg2535" />
  <rect
     x="3"
     y="11"
     width="18"
     height="11"
     rx="2"
     ry="2"
     id="rect2531" />
  <path
     d="M7 11V7a5 5 0 0 1 10 0v4"
     id="path2533" />
  <path
     style="fill:#ebcb8b;stroke-width:0.0469208;fill-opacity:1"
     d="M 3.0806794,15.306088 C 2.269191,15.187048 1.6401118,14.641372 1.4136461,13.860069 l -0.052942,-0.18265 V 10.991202 8.3049853 L 1.4159216,8.1300676 C 1.6396321,7.4214011 2.098193,6.9641581 2.796561,6.7533959 2.984495,6.6966787 3.0474724,6.6901377 3.5014663,6.6801804 L 4,6.6692462 4.0003707,5.6572038 C 4.0007672,4.5766581 4.0189457,4.2267552 4.0937598,3.8596361 4.2362637,3.1603566 4.5770111,2.4980874 5.0691153,1.9639554 6.6398358,0.25908927 9.3304457,0.24876136 10.908592,1.9415406 c 0.50864,0.5455867 0.852785,1.2072472 0.997647,1.9180955 0.07481,0.3671191 0.09299,0.717022 0.09339,1.7975677 L 12,6.6692462 l 0.498533,0.011451 c 0.560214,0.012868 0.676865,0.034307 0.999262,0.1836523 0.545562,0.252723 0.895053,0.6599442 1.086283,1.2657178 l 0.05522,0.1749177 v 2.686217 2.686217 l -0.05294,0.18265 c -0.184404,0.636189 -0.668208,1.151371 -1.272571,1.355107 -0.351688,0.118556 -0.23412,0.116063 -5.3372434,0.113176 -2.6193548,-0.0015 -4.8224919,-0.0115 -4.8958602,-0.02226 z m 9.8460066,-1.354167 c 0.139592,-0.06419 0.277964,-0.191987 0.348029,-0.321422 l 0.0508,-0.09384 V 11.002933 8.4692082 l -0.0699,-0.1261996 C 13.217176,8.2735986 13.139028,8.1811547 13.081957,8.1375777 12.872394,7.9775646 13.236767,7.9882698 8,7.9882698 c -5.2338307,0 -4.8767536,-0.010346 -5.0816093,0.1472291 -0.054088,0.041605 -0.1310939,0.1337093 -0.1711232,0.2046771 l -0.072781,0.1290322 v 2.5337248 c 0,2.425176 0.00187,2.537242 0.043641,2.615835 0.096649,0.181849 0.2825416,0.327083 0.477989,0.373443 0.050606,0.012 2.1226551,0.0194 4.8508043,0.0173 l 4.7624632,-0.0037 z M 10.673869,5.5366569 C 10.673411,4.7018632 10.665129,4.3650407 10.641856,4.2346041 10.463337,3.2340615 9.7659622,2.4261081 8.8211144,2.1251564 8.5307789,2.0326792 8.3036141,1.9973099 8,1.9973099 c -1.2853462,0 -2.3569764,0.8832104 -2.6300045,2.167583 -0.029953,0.1409075 -0.039616,0.3972657 -0.049271,1.3071833 -0.00661,0.622545 -0.00591,1.14781 0.00156,1.1672552 0.011996,0.031262 0.3226142,0.034665 2.6828868,0.02939 l 2.6693207,-0.00596 -6.17e-4,-1.1260997 z"
     id="path2635"
     transform="scale(1.5)" />
</svg>
