<?xml version="1.0" encoding="UTF-8" standalone="no"?>
<svg
   width="16"
   height="16"
   viewBox="0 0 24 24"
   fill="none"
   stroke="#ECEFF4"
   stroke-width="2"
   stroke-linecap="round"
   stroke-linejoin="round"
   class="feather feather-log-out"
   version="1.1"
   id="svg2272"
   sodipodi:docname="log-out.svg"
   inkscape:version="1.1 (c4e8f9ed74, 2021-05-24)"
   xmlns:inkscape="http://www.inkscape.org/namespaces/inkscape"
   xmlns:sodipodi="http://sodipodi.sourceforge.net/DTD/sodipodi-0.dtd"
   xmlns="http://www.w3.org/2000/svg"
   xmlns:svg="http://www.w3.org/2000/svg">
  <defs
     id="defs2276" />
  <sodipodi:namedview
     id="namedview2274"
     pagecolor="#ffffff"
     bordercolor="#666666"
     borderopacity="1.0"
     inkscape:pageshadow="2"
     inkscape:pageopacity="0.0"
     inkscape:pagecheckerboard="0"
     showgrid="false"
     inkscape:zoom="42.625"
     inkscape:cx="3.542522"
     inkscape:cy="7.941349"
     inkscape:window-width="1916"
     inkscape:window-height="1054"
     inkscape:window-x="0"
     inkscape:window-y="22"
     inkscape:window-maximized="1"
     inkscape:current-layer="svg2272" />
  <path
     d="M9 21H5a2 2 0 0 1-2-2V5a2 2 0 0 1 2-2h4"
     id="path2266" />
  <polyline
     points="16 17 21 12 16 7"
     id="polyline2268" />
  <line
     x1="21"
     y1="12"
     x2="9"
     y2="12"
     id="line2270" />
  <path
     style="fill:#b48ead;stroke-width:0.0469208;fill-opacity:1"
     d="M 2.973797,14.625044 C 2.5955304,14.561995 2.2422424,14.371275 1.9354839,14.064516 1.6205068,13.749539 1.4387049,13.407143 1.3736933,13.00647 c -0.033813,-0.208393 -0.033813,-9.8045474 0,-10.0129402 C 1.4387049,2.5928567 1.6205068,2.250461 1.9354839,1.9354839 2.250461,1.6205068 2.5928567,1.4387049 2.9935298,1.3736933 3.0860791,1.3586766 3.7205954,1.3492601 4.6472793,1.3491508 l 1.5035843,-1.772e-4 0.1463577,0.073136 C 6.5416845,1.5442691 6.6660246,1.7670593 6.6459927,2.0470308 6.6284457,2.2922739 6.5103526,2.4714838 6.2895019,2.5880169 l -0.1194139,0.06301 -1.5131965,0.01173 -1.5131965,0.01173 -0.1055718,0.054834 c -0.1406995,0.073078 -0.238826,0.1701828 -0.3072453,0.304045 l -0.056391,0.1103291 -0.00603,4.8295397 -0.00603,4.8295393 0.062305,0.138834 c 0.066647,0.14851 0.1608691,0.24599 0.3199124,0.330975 l 0.099054,0.05293 1.5131965,0.01173 1.5131965,0.01173 0.1194139,0.06301 c 0.2208507,0.116533 0.3389438,0.295743 0.3564908,0.540986 0.020032,0.279972 -0.1043082,0.502762 -0.3487714,0.624921 L 6.1508669,14.65103 4.6238222,14.64833 C 3.7839475,14.64683 3.0414378,14.63636 2.9738003,14.62509 Z"
     id="path2408"
     transform="scale(1.5)" />
  <path
     style="fill:#b48ead;fill-opacity:1;stroke-width:0.0469208"
     d="m 10.525264,11.975615 c -0.221653,-0.04545 -0.417114,-0.229716 -0.485817,-0.458 -0.043176,-0.143461 -0.042356,-0.229826 0.0037,-0.387257 0.03581,-0.122473 0.0825,-0.172764 1.201328,-1.2941011 L 12.40852,8.6695812 9.1368115,8.6632364 5.8651026,8.6568915 5.7424739,8.6014482 C 5.6052429,8.5394029 5.4467058,8.3816713 5.3900177,8.2507826 5.3406234,8.136735 5.3406234,7.863265 5.3900177,7.7492174 5.4467058,7.6183287 5.6052429,7.4605971 5.7424739,7.3985518 L 5.8651026,7.3431085 9.1368115,7.3367636 12.40852,7.3304188 11.244265,6.1637431 C 10.088977,5.0060534 10.079703,4.9959983 10.040134,4.8582519 9.9168981,4.4292483 10.219051,4.0183056 10.659606,4.0157408 c 0.297003,-0.00173 0.207427,-0.079268 2.14311,1.8551474 C 14.728662,7.7955723 14.65624,7.7123824 14.65624,8 c 0,0.2876176 0.07242,0.2044277 -1.853524,2.129112 -1.377486,1.376585 -1.775471,1.761548 -1.858434,1.797633 -0.133059,0.05787 -0.28735,0.07587 -0.419018,0.04887 z"
     id="path2484"
     transform="scale(1.5)" />
</svg>
