<?xml version="1.0" encoding="UTF-8" standalone="no"?>
<svg
   width="16"
   height="16"
   viewBox="0 0 24 24"
   fill="none"
   stroke="#ECEFF4"
   stroke-width="2"
   stroke-linecap="round"
   stroke-linejoin="round"
   class="feather feather-moon"
   version="1.1"
   id="svg7138"
   sodipodi:docname="moon.svg"
   inkscape:version="1.1 (c4e8f9ed74, 2021-05-24)"
   xmlns:inkscape="http://www.inkscape.org/namespaces/inkscape"
   xmlns:sodipodi="http://sodipodi.sourceforge.net/DTD/sodipodi-0.dtd"
   xmlns="http://www.w3.org/2000/svg"
   xmlns:svg="http://www.w3.org/2000/svg">
  <defs
     id="defs7142" />
  <sodipodi:namedview
     id="namedview7140"
     pagecolor="#ffffff"
     bordercolor="#666666"
     borderopacity="1.0"
     inkscape:pageshadow="2"
     inkscape:pageopacity="0.0"
     inkscape:pagecheckerboard="0"
     showgrid="false"
     inkscape:zoom="42.625"
     inkscape:cx="3.542522"
     inkscape:cy="7.941349"
     inkscape:window-width="1916"
     inkscape:window-height="1054"
     inkscape:window-x="0"
     inkscape:window-y="22"
     inkscape:window-maximized="1"
     inkscape:current-layer="svg7138" />
  <path
     d="M21 12.79A9 9 0 1 1 11.21 3 7 7 0 0 0 21 12.79z"
     id="path7136" />
  <path
     style="fill:#88c0d0;stroke-width:0.0469208;fill-opacity:1"
     d="M 7.483871,14.611566 C 6.581889,14.533588 5.6022517,14.24155 4.856126,13.828213 3.1610551,12.889182 1.9966039,11.3681 1.5481236,9.5070848 1.3985185,8.8862829 1.3370404,8.0460608 1.3940794,7.4017595 1.5967309,5.1126461 2.9508625,3.0968727 4.9867092,2.0537364 5.6436174,1.7171468 6.3443826,1.4930802 7.0763247,1.3855911 c 0.4766482,-0.069998 0.6570501,-0.038887 0.8494168,0.1464843 0.117759,0.1134766 0.180842,0.2396002 0.1967024,0.3932717 0.01933,0.1872951 -0.02603,0.3262563 -0.1794426,0.5497262 -0.3578473,0.5212599 -0.5826381,1.08702 -0.6851245,1.7243402 -0.038752,0.240982 -0.038926,0.9069525 -3.003e-4,1.1495601 0.1018759,0.6398808 0.3439874,1.2387498 0.7113544,1.759554 0.1916094,0.271638 0.6533886,0.7336981 0.9221509,0.9227109 0.5233447,0.3680537 1.1205692,0.6093891 1.7599442,0.7111845 0.241847,0.038505 0.907824,0.038493 1.14956,-2.04e-5 0.622884,-0.099238 1.166905,-0.314157 1.70088,-0.6719449 0.247963,-0.1661468 0.385133,-0.2123104 0.573186,-0.1929016 0.153672,0.01586 0.279796,0.078943 0.393272,0.1967024 0.190907,0.1981108 0.218087,0.3762471 0.137278,0.899711 -0.463828,3.0046025 -2.866443,5.2986245 -5.8849681,5.6189825 -0.2852941,0.03028 -0.9803855,0.04074 -1.2363634,0.01861 z m 1.148167,-1.333262 c 0.6260931,-0.07324 1.1547838,-0.229537 1.737463,-0.513651 0.874457,-0.426384 1.599288,-1.065972 2.130884,-1.88028 0.234653,-0.359447 0.566134,-1.0397499 0.52612,-1.0797642 -0.0073,-0.00732 -0.101401,0.014535 -0.20906,0.048575 -0.537836,0.1700562 -0.97248,0.2337142 -1.591639,0.2331142 -0.495159,-4.81e-4 -0.802991,-0.03295 -1.208211,-0.1274534 C 8.6919336,9.6496889 7.5095815,8.8190818 6.7616847,7.6715543 6.4349372,7.170213 6.1755381,6.5618006 6.0415085,5.9824047 5.9416171,5.5505853 5.9138665,5.2912035 5.9135001,4.7859238 5.9130426,4.1546721 5.9829161,3.677002 6.1496556,3.1715326 6.1829126,3.0707143 6.2039897,2.9820933 6.1964936,2.9745972 6.1546233,2.9327269 5.482694,3.2600165 5.1143695,3.5016883 4.2940185,4.0399521 3.6683162,4.7473527 3.237253,5.6239005 c -0.7354674,1.49554 -0.735835,3.2090252 -0.00101,4.6986805 0.2941499,0.596306 0.616948,1.039416 1.0900574,1.496339 1.144194,1.105048 2.7325605,1.643408 4.3057356,1.459384 z"
     id="path7275"
     transform="scale(1.5)" />
</svg>
