<?xml version="1.0" encoding="UTF-8" standalone="no"?>
<svg
   width="16"
   height="16"
   viewBox="0 0 24 24"
   fill="none"
   stroke="#ECEFF4"
   stroke-width="2"
   stroke-linecap="round"
   stroke-linejoin="round"
   class="feather feather-refresh-cw"
   version="1.1"
   id="svg2723"
   sodipodi:docname="refresh-cw.svg"
   inkscape:version="1.1 (c4e8f9ed74, 2021-05-24)"
   xmlns:inkscape="http://www.inkscape.org/namespaces/inkscape"
   xmlns:sodipodi="http://sodipodi.sourceforge.net/DTD/sodipodi-0.dtd"
   xmlns="http://www.w3.org/2000/svg"
   xmlns:svg="http://www.w3.org/2000/svg">
  <defs
     id="defs2727" />
  <sodipodi:namedview
     id="namedview2725"
     pagecolor="#ffffff"
     bordercolor="#666666"
     borderopacity="1.0"
     inkscape:pageshadow="2"
     inkscape:pageopacity="0.0"
     inkscape:pagecheckerboard="0"
     showgrid="false"
     inkscape:zoom="42.625"
     inkscape:cx="3.542522"
     inkscape:cy="7.941349"
     inkscape:window-width="1916"
     inkscape:window-height="1054"
     inkscape:window-x="0"
     inkscape:window-y="22"
     inkscape:window-maximized="1"
     inkscape:current-layer="svg2723" />
  <polyline
     points="23 4 23 10 17 10"
     id="polyline2717" />
  <polyline
     points="1 20 1 14 7 14"
     id="polyline2719" />
  <path
     d="M3.51 9a9 9 0 0 1 14.85-3.36L23 10M1 14l4.64 4.36A9 9 0 0 0 20.49 15"
     id="path2721" />
  <path
     style="fill:#d08770;stroke-width:0.0469208;fill-opacity:1"
     d="M 11.190616,7.3093652 C 10.88425,7.2344495 10.687247,6.9813877 10.687247,6.6627566 c 0,-0.2547599 0.106158,-0.4413002 0.324023,-0.569375 l 0.108965,-0.064056 1.274438,-0.01173 1.274438,-0.01173 -1.072874,-1.0087977 C 12.006156,4.4422287 11.432659,3.9150684 11.321799,3.8256002 11.029566,3.5897581 10.744476,3.4100452 10.353812,3.2154085 7.9601903,2.0228577 5.0279146,2.8152588 3.5437561,5.0557185 3.3390016,5.3648122 3.2027239,5.6242911 3.040286,6.0143482 2.9637997,6.198012 2.8739064,6.3840924 2.840523,6.4278604 2.8057131,6.4734987 2.7149418,6.5393806 2.6276929,6.5823331 2.4885147,6.6508504 2.4610553,6.6562872 2.3052286,6.6461799 2.1211718,6.6342416 2.0299609,6.5975062 1.8991032,6.4826116 1.7638408,6.3638496 1.6925013,6.1999315 1.6916165,6.0058651 1.6909692,5.8638818 1.7059591,5.8037429 1.8023062,5.5617821 2.1423238,4.7078813 2.6520596,3.9336523 3.2940294,3.2960299 3.8248148,2.7688389 4.3664026,2.3771431 5.0087977,2.0558476 6.3469077,1.3865887 7.853013,1.1845211 9.313783,1.4782665 c 0.973553,0.1957713 1.894795,0.6100994 2.693938,1.2115969 0.285327,0.21476 0.357895,0.2805663 1.648407,1.4948123 l 1.006629,0.947139 0.01173,-1.3225056 0.01173,-1.3225056 0.0693,-0.1251078 c 0.1288,-0.2325201 0.31107,-0.3408546 0.57586,-0.3422698 0.146644,-7.838e-4 0.196032,0.00958 0.296489,0.062193 0.0663,0.034723 0.158098,0.1070147 0.204006,0.1606479 0.163765,0.191323 0.156422,0.076211 0.156168,2.4481298 l -2.35e-4,2.1365833 -0.05504,0.1181959 c -0.07114,0.1527681 -0.244194,0.3054648 -0.397935,0.3511209 -0.101241,0.030066 -0.415251,0.034739 -2.195987,0.032681 -1.142819,-0.00132 -2.109525,-0.010146 -2.148235,-0.019612 z"
     id="path7013"
     transform="scale(1.5)" />
  <path
     style="fill:#d08770;fill-opacity:1;stroke-width:0.0469208"
     d="M 7.4604106,14.635026 C 6.1689647,14.523379 4.8513825,14.004958 3.8826979,13.227328 3.6428835,13.034812 3.502963,12.906333 2.3437487,11.814219 l -1.0065053,-0.948244 -0.01173,1.323611 -0.01173,1.32361 -0.069301,0.125108 c -0.1287998,0.23252 -0.31106981,0.340855 -0.5758604,0.34227 -0.14664352,7.84e-4 -0.19603151,-0.0096 -0.2964892,-0.06219 C 0.30583763,13.883658 0.21403526,13.811367 0.16812725,13.757733 0.00436186,13.566411 0.01170496,13.681523 0.01195939,11.309604 L 0.01218857,9.1730205 0.06722793,9.0548246 C 0.13951696,8.8995853 0.31213171,8.7484663 0.4693794,8.7027532 0.57444542,8.6722097 0.87877546,8.6682917 2.7118937,8.6738828 l 2.1209509,0.00647 0.117302,0.062421 c 0.2444026,0.1300568 0.362606,0.3238438 0.362606,0.5944702 0,0.25476 -0.1061572,0.4413001 -0.324023,0.5693751 l -0.1089642,0.064056 -1.2741046,0.01173 -1.2741047,0.01173 1.0729553,1.0087979 c 0.5901256,0.554838 1.1600193,1.079049 1.2664305,1.164911 0.607978,0.490575 1.4352878,0.885792 2.1983853,1.050197 2.1506768,0.46335 4.3696548,-0.439925 5.5856968,-2.273759 0.205788,-0.310336 0.344402,-0.573735 0.505493,-0.9605571 0.07604,-0.182604 0.165577,-0.3678173 0.19896,-0.4115851 0.03481,-0.045638 0.125581,-0.1115203 0.21283,-0.1544728 0.13924,-0.068548 0.166568,-0.073952 0.322464,-0.063773 0.367814,0.024017 0.612113,0.2788987 0.613659,0.6402407 6.07e-4,0.1419233 -0.01443,0.2022243 -0.110736,0.4440833 -0.793334,1.992334 -2.478509,3.480352 -4.5320049,4.001785 -0.6291181,0.159748 -1.0664002,0.213092 -1.6975002,0.20708 -0.2276653,-0.0022 -0.4561654,-0.0076 -0.5077783,-0.01206 z"
     id="path7089"
     transform="scale(1.5)" />
</svg>
